<?xml version="1.0" encoding="UTF-8" standalone="no"?>
<!-- Created with Inkscape (http://www.inkscape.org/) -->

<svg
   xmlns:dc="http://purl.org/dc/elements/1.1/"
   xmlns:cc="http://creativecommons.org/ns#"
   xmlns:rdf="http://www.w3.org/1999/02/22-rdf-syntax-ns#"
   xmlns:svg="http://www.w3.org/2000/svg"
   xmlns="http://www.w3.org/2000/svg"
   xmlns:sodipodi="http://sodipodi.sourceforge.net/DTD/sodipodi-0.dtd"
   xmlns:inkscape="http://www.inkscape.org/namespaces/inkscape"
   width="600"
   height="200"
   id="svg2"
   version="1.1"
   inkscape:version="0.48.1 "
   sodipodi:docname="GRAN TURISMO SVG.svg">
  <defs
     id="defs4" />
  <sodipodi:namedview
     id="base"
     pagecolor="#ffffff"
     bordercolor="#666666"
     borderopacity="1.0"
     inkscape:pageopacity="0.0"
     inkscape:pageshadow="2"
     inkscape:zoom="0.24748737"
     inkscape:cx="-74.552338"
     inkscape:cy="186.55059"
     inkscape:document-units="px"
     inkscape:current-layer="layer1"
     showgrid="false"
     inkscape:window-width="1024"
     inkscape:window-height="715"
     inkscape:window-x="-8"
     inkscape:window-y="-8"
     inkscape:window-maximized="1" />
  <metadata
     id="metadata7">
    <rdf:RDF>
      <cc:Work
         rdf:about="">
        <dc:format>image/svg+xml</dc:format>
        <dc:type
           rdf:resource="http://purl.org/dc/dcmitype/StillImage" />
        <dc:title></dc:title>
      </cc:Work>
    </rdf:RDF>
  </metadata>
  <g
     inkscape:label="レイヤー 1"
     inkscape:groupmode="layer"
     id="layer1"
     transform="translate(0,-852.36218)">
    <path
       style="fill:#000000;fill-opacity:1;fill-rule:evenodd;stroke:none"
       id="path8741"
       d="m 31.927726,1030.2099 0,15.3003 -5.176479,0 0,-15.3003 -7.24704,0 0,-3.7389 19.670549,0 0,3.7389 -7.24703,0 z m 9.66207,15.3003 0,-19.0392 5.17696,0 0,7.1399 10.35147,0 0,-7.1399 5.52188,0 0,19.0392 -5.52188,0 0,-7.822 -10.35147,0 0,7.822 -5.17696,0 z m 25.88035,0 0,-19.0392 18.9807,0 0,3.7389 -13.80177,0 0,3.401 12.07465,0 0,3.7374 -12.07465,0 0,4.0807 13.80177,0 0,4.0812 -18.9807,0 z m 38.647444,-10.8812 5.86682,0 c 1.72466,0 2.76142,-0.3398 3.45177,-0.6783 0.68988,-0.3398 1.0348,-1.0215 1.0348,-1.7012 0,-0.6797 -0.34492,-1.3599 -1.0348,-1.6998 -0.69036,-0.3398 -1.72712,-0.3398 -3.79723,-0.3398 l -5.52139,0 0,4.4191 z m -5.51845,10.8812 0,-19.0392 13.10995,0 c 2.76193,0 4.83201,0.3398 6.21178,1.0176 1.38022,1.0201 2.07205,2.3814 2.07205,4.0812 0,1.0196 -0.34494,2.0411 -1.03676,3.0592 -0.34495,0.6797 -1.38023,1.3594 -2.41503,1.6993 1.0348,0.3398 1.72466,0.6802 2.07008,1.3599 0.34495,0.6817 0.34495,1.3614 0.68988,2.7232 0,0.3399 0,0.3399 0,0.6778 0,2.3795 0.34689,3.7389 1.03677,4.421 l -5.86682,0 c -0.34494,0 -0.34494,-0.3403 -0.34494,-0.6821 -0.34493,-0.3399 -0.34493,-0.3399 -0.34493,-0.6797 l 0,-1.3594 c 0,-1.6998 0,-3.0592 -0.68987,-3.3996 -0.34543,-0.6797 -1.38219,-1.0196 -3.10686,-1.0196 l -5.8668,0 0,7.1404 -5.51845,0 z m 25.18657,0 0,-19.0392 18.9807,0 0,3.7389 -13.45684,0 0,3.401 12.0771,0 0,3.7374 -12.0771,0 0,4.0807 13.45684,0 0,4.0812 -18.9807,0 z m 28.64081,-7.822 5.86878,0 -3.10735,-6.1184 -2.76143,6.1184 z m -9.31322,7.822 10.00307,-19.0392 5.17893,0 9.66158,19.0392 -5.86681,0 -2.07208,-4.0812 -9.31469,0 -2.07009,4.0812 -5.51991,0 z m 26.22184,0 0,-19.0392 5.5214,0 0,14.958 10.69884,0 0,4.0812 -16.22024,0 z m 36.23381,-15.3003 0,11.2191 4.1402,0 c 2.4165,0 4.13972,-0.3398 5.52188,-1.3574 1.0348,-1.022 1.72469,-2.3834 1.72469,-4.0832 0,-2.0377 -0.68989,-3.399 -1.72469,-4.4186 -1.38216,-1.02 -3.10538,-1.3599 -5.52188,-1.3599 l -4.1402,0 z m 3.79527,-3.7389 c 2.41453,0 4.14165,0 5.17646,0.3398 1.3822,0 2.41504,0.338 3.10488,0.6778 1.72516,1.0201 2.75997,2.0396 3.79724,3.401 0.68985,1.3599 1.37973,3.0611 1.37973,5.0988 0,2.0416 -0.68988,3.401 -1.37973,5.1008 -1.03727,1.3599 -2.07208,2.3795 -3.79724,3.0592 -0.68984,0.6797 -1.72268,1.0215 -3.10488,1.0215 -1.03481,0.3403 -2.76193,0.3403 -5.17646,0.3403 l -9.66012,0 0,-19.0392 9.66012,0 z m 22.42857,8.158 5.86682,0 c 1.72465,0 2.76142,-0.3398 3.45177,-0.6783 0.34495,-0.3398 0.68988,-1.0215 0.68988,-1.7012 0,-0.6797 -0.34493,-1.3599 -0.68988,-1.6998 -0.69035,-0.3398 -1.72712,-0.3398 -3.79525,-0.3398 l -5.52334,0 0,4.4191 z m -5.51995,10.8812 0,-19.0392 13.11142,0 c 2.417,0 4.48708,0.3398 5.86488,1.0176 1.38216,1.0201 2.07204,2.3814 2.07204,4.0812 0,1.0196 -0.34492,2.0411 -1.03677,3.0592 -0.34493,0.6797 -1.38022,1.3594 -2.41307,1.6993 1.03285,0.3398 1.72272,0.6802 2.06814,1.3599 0.34493,0.6817 0.34493,1.3614 0.69182,2.7232 0,0.3399 0,0.3399 0,0.6778 0,2.3795 0.34496,3.7389 1.03481,4.421 l -5.86485,0 c -0.34493,0 -0.34493,-0.3403 -0.34493,-0.6821 -0.34495,-0.3399 -0.34495,-0.3399 -0.34495,-0.6797 l 0,-1.3594 c 0,-1.6998 0,-3.0592 -0.34493,-3.3996 -0.34542,-0.6797 -1.38219,-1.0196 -3.10684,-1.0196 l -5.86682,0 0,7.1404 -5.51995,0 z m 25.19001,0 0,-19.0392 5.17499,0 0,19.0392 -5.17499,0 z m 15.87431,0 -9.31712,-19.0392 5.86287,0 6.21177,13.6006 6.21175,-13.6006 5.86828,0 -9.31761,19.0392 -5.51994,0 z m 15.86794,0 0,-19.0392 5.52483,0 0,19.0392 -5.52483,0 z m 10.35293,0 0,-19.0392 6.56011,0 10.6964,13.6006 0,-13.6006 5.17646,0 0,19.0392 -6.55521,0 -10.6964,-13.6005 0,13.6005 -5.18136,0 z m 46.58805,-2.0415 c -1.0353,0.6797 -2.41896,1.3594 -3.45427,2.0415 -1.37874,0.3399 -2.75749,0.6798 -4.48461,0.6798 -1.72221,0 -3.10588,-0.3399 -4.82811,-0.6798 -1.38363,-0.3403 -2.76242,-1.0219 -3.79769,-1.7017 -1.37875,-1.0195 -2.41405,-2.0396 -3.1059,-3.3971 -0.34345,-1.3618 -0.69182,-2.7232 -0.69182,-4.423 0,-3.0592 1.0353,-5.4387 3.45424,-7.4798 2.06569,-1.6978 5.17647,-2.7193 9.31272,-2.7193 3.1059,0 5.86832,0.6817 8.28235,2.0391 2.0706,1.36 3.45426,3.0612 3.79771,5.1008 l -5.86828,0 c -0.68694,-1.0196 -1.37876,-1.6997 -2.40915,-2.3795 -1.0402,-0.3398 -2.41895,-0.6797 -3.80263,-0.6797 -2.06565,0 -3.79281,0.3399 -5.17155,1.6998 -1.38363,1.0196 -1.72712,2.3809 -1.72712,4.4186 0,2.0416 0.34349,3.401 1.72712,4.423 1.37874,1.0176 3.1059,1.6973 5.17155,1.6973 1.38368,0 2.76243,-0.3398 3.80263,-0.6797 1.03039,-0.6777 1.72221,-1.3575 2.40915,-2.3795 l -4.8281,0 0,-4.0807 10.35293,0 0,10.5414 -3.79772,0 -0.34345,-2.0415 z m 18.97874,-4.4191 5.51991,0 c 0,1.022 0.34838,2.0396 1.37875,2.3795 1.03531,0.6797 2.76243,1.02 4.83299,1.02 1.37875,0 2.75754,-0.3403 3.44936,-0.6802 0.69182,-0.3399 1.37875,-1.0176 1.37875,-1.6974 0,-0.6821 -0.34345,-1.0219 -1.03531,-1.3618 -0.34344,-0.3398 -1.72219,-0.6797 -3.10095,-0.6797 l -3.79772,-0.3418 c -2.75749,-0.3399 -4.83299,-1.02 -6.21174,-1.6998 -1.38366,-1.0195 -2.07059,-2.0377 -2.07059,-3.7389 0,-2.0396 1.0353,-3.401 2.7575,-4.7609 2.07548,-1.0176 4.48953,-1.6993 7.59543,-1.6993 3.44933,0 5.86338,0.6817 7.93397,1.6993 1.72712,1.02 2.76239,2.7213 2.76239,4.7609 l -5.51991,0 c 0,-1.02 -0.34838,-1.6997 -1.38364,-2.0396 -0.68693,-0.6817 -2.06569,-0.6817 -3.79281,-0.6817 -1.38366,0 -2.41896,0 -3.45426,0.3418 -0.68691,0.3399 -1.03039,1.0196 -1.03039,1.6998 0,0.6797 0,1.0196 0.68693,1.3594 0.34346,0.3418 1.72712,0.3418 3.44933,0.6817 l 4.1412,0.3398 c 2.76239,0.3384 4.48463,0.6783 5.86828,1.6979 1.37876,1.0195 2.07057,2.3814 2.07057,3.7408 0,2.3795 -1.0353,3.7394 -3.10587,5.0989 -1.72711,1.0219 -4.83298,1.7017 -8.28234,1.7017 -3.79771,0 -6.20684,-0.6798 -8.28234,-2.0416 -2.07059,-1.0196 -2.75749,-2.7193 -2.75749,-4.759 l 0,-0.3398 z m 26.22085,6.4607 0,-19.0393 5.51992,0 0,19.0393 -5.51992,0 z m 10.35294,0 0,-19.0393 6.90359,0 6.90356,13.6006 6.8987,-13.6006 6.90358,0 0,19.0393 -5.18138,0 0,-12.9209 -6.55522,12.9209 -4.48463,0 -6.21176,-12.9209 0,12.9209 -5.17644,0 z m 37.95753,-19.0393 0,10.1972 c 0,2.0415 0.34348,3.4034 1.03529,4.0831 1.0353,1.0177 2.41897,1.3575 4.48954,1.3575 1.03038,0 1.72223,0 2.7575,-0.3399 0.69185,-0.3398 1.38367,-0.6797 1.72715,-1.3575 0.34345,-0.3398 0.69182,-0.6816 0.69182,-1.3618 0.34345,-0.3398 0.34345,-1.3614 0.34345,-2.3814 l 0,-10.1972 5.17647,0 0,10.8774 c 0,2.7232 -0.69181,5.1007 -2.76242,6.4602 -1.7222,1.3613 -4.48462,2.3814 -7.93397,2.3814 -3.79769,0 -6.21174,-1.0201 -8.28234,-2.3814 -1.72712,-1.3595 -2.76242,-3.737 -2.76242,-6.4602 l 0,-10.8774 5.51993,0 z m 21.04932,19.0393 0,-19.0393 5.52484,0 0,14.9581 11.03984,0 0,4.0812 -16.56468,0 z m 27.60945,-7.8221 5.51991,0 -2.76242,-6.1184 -2.75749,6.1184 z m -9.66601,7.8221 10.3529,-19.0393 4.83302,0 10.00454,19.0393 -6.21173,0 -1.72224,-4.0812 -9.66109,0 -1.72712,4.0812 -5.86828,0 z m 34.85644,-15.3004 7.24216,0 0,-3.7389 -19.66567,0 0,3.7389 7.24704,0 0,15.3004 5.17647,0 0,-15.3004 z m 21.39278,11.8989 c 2.07057,0 3.79281,-0.6797 4.82811,-1.6974 1.38364,-1.0219 2.07057,-2.3814 2.07057,-4.4229 0,-2.0377 -0.68693,-3.3991 -2.07057,-4.4187 -1.0353,-1.3599 -2.75754,-1.6997 -4.82811,-1.6997 -2.41404,0 -3.79772,0.3398 -5.17647,1.6997 -1.38367,1.0196 -1.72712,2.381 -1.72712,4.4187 0,2.0415 0.34345,3.4009 1.72712,4.4229 1.37875,1.0177 2.76243,1.6974 5.17647,1.6974 z m -12.76696,-6.1203 c 0,-3.0592 1.03527,-5.4387 3.44933,-7.4798 2.07059,-1.6978 5.17646,-2.7193 9.31763,-2.7193 3.79281,0 6.89868,1.0215 9.31764,2.7193 2.07057,2.0411 3.44932,4.4206 3.44932,7.4798 0,3.0611 -1.37875,5.4406 -3.44932,7.4802 -2.41896,1.7012 -5.52483,2.7213 -9.31764,2.7213 -4.14117,0 -7.24704,-1.0201 -9.31763,-2.7213 -2.41406,-2.0396 -3.44933,-4.4191 -3.44933,-7.4802 z m 34.50796,-1.3595 5.86337,0 c 1.72224,0 2.75751,-0.3398 3.44936,-0.6782 0.69181,-0.3399 1.04018,-1.0215 1.04018,-1.7012 0,-0.6798 -0.34837,-1.36 -1.04018,-1.6998 -0.34349,-0.3399 -1.72712,-0.3399 -3.44936,-0.3399 l -5.86337,0 0,4.4191 z m -5.52484,10.8813 0,-19.0393 13.11045,0 c 3.11077,0 5.18134,0.3399 6.5601,1.0177 1.37875,1.02 2.07061,2.3814 2.07061,4.0812 0,1.0195 -0.34838,2.041 -1.03531,3.0591 -0.69182,0.6798 -1.72712,1.3595 -2.76242,1.6993 1.0353,0.3399 1.72712,0.6802 2.0706,1.3599 0.34345,0.6817 0.69182,1.3614 0.69182,2.7233 0,0.3398 0,0.3398 0,0.6777 0,2.3795 0.34345,3.739 1.03531,4.4211 l -5.86341,0 c -0.34837,0 -0.34837,-0.3404 -0.34837,-0.6822 0,-0.3398 0,-0.3398 0,-0.6797 l 0,-1.3594 c 0,-1.6998 -0.34345,-3.0592 -1.0353,-3.3995 -0.34836,-0.6798 -1.38363,-1.0196 -2.76238,-1.0196 l -6.20686,0 0,7.1403 -5.52484,0"
       inkscape:connector-curvature="0" />
    <path
       style="fill:#000000;fill-opacity:1;fill-rule:evenodd;stroke:none"
       id="path8743-1"
       d="m 39.103276,1009.402 1.3693,-5.1027 c -2.05469,2.0415 -4.45404,3.4014 -7.19797,4.4229 -2.39689,1.0196 -4.79818,1.6998 -7.542122,1.6998 -4.796716,0 -7.885325,-1.6998 -9.254624,-5.1008 -1.370765,-3.7394 -1.028072,-8.49977 1.369305,-15.29836 l 8.228004,-26.86082 c 2.401277,-6.80054 5.485997,-11.89937 10.286577,-15.30035 4.45355,-3.39713 10.28222,-5.10028 17.13946,-5.10028 7.19944,0 12.00201,1.70315 14.3994,5.10028 2.39933,3.40101 2.39933,8.49981 0.34268,15.30035 l -1.02856,3.06113 -16.11284,0 1.71346,-5.43869 c 0.68587,-2.38141 0.68587,-3.74134 0.34319,-4.76283 -0.34319,-1.01957 -1.712,-1.35942 -3.42791,-1.35942 -1.71346,0 -3.08666,0.33985 -4.11474,1.35942 -1.02644,1.0216 -1.71187,2.38142 -2.3973,4.76285 l -10.28661,31.61593 c -0.68539,2.0435 -0.68539,3.74134 0,4.76092 0.34269,1.01957 1.37126,1.35943 3.08666,1.35943 1.71394,0 3.0847,-0.33986 4.11326,-1.35943 1.02808,-1.01957 2.0586,-2.71741 2.74398,-4.76092 l 2.39737,-7.47832 -5.48403,0 3.77205,-11.89888 21.59932,0 -11.65929,36.37879 -14.39794,0 z m 52.45065,-39.10209 c 3.42935,-0.33986 6.1714,-0.67778 7.54262,-1.69736 1.372714,-0.68019 2.743964,-2.03963 3.427414,-4.08119 l 1.03003,-3.73699 c 0.68587,-2.3814 0.68587,-3.74134 -0.34269,-4.76282 -1.02808,-0.67971 -3.08471,-1.01957 -6.171394,-1.01957 l -0.68538,0 -4.80062,15.29792 z m -28.10947,39.10209 15.77065,0 8.91144,-28.90046 c 3.77011,0 5.83063,0.68164 6.85675,1.70121 0.68588,1.01813 0.68588,3.39956 -0.34268,6.80054 l -4.11474,12.91891 c -0.68506,2.0393 -1.02823,3.3991 -1.36895,4.7586 0,1.0201 0,2.0416 0.34073,2.7213 l 16.113344,0 c -0.3427,-1.0196 -0.3427,-1.7012 -0.3427,-2.7213 0,-1.0196 0.3427,-2.7193 1.02808,-4.4186 l 4.80062,-14.9605 c 1.02808,-3.74086 1.02808,-6.45826 0.34269,-8.15995 -0.68538,-2.04109 -2.39933,-3.39908 -5.1433,-4.41862 3.42982,-1.02006 5.82867,-2.72128 7.88727,-4.42299 2.05664,-2.03721 3.42742,-4.75655 4.79671,-8.15801 l 1.03003,-3.73893 0.34269,-0.67972 c 1.3732,-4.76088 1.03051,-8.16189 -1.37272,-10.53944 -2.05468,-2.3795 -6.16943,-3.39908 -11.99663,-3.39908 l -22.970084,0 -20.5688,65.61724 z m 48.680354,0 33.59727,-65.61725 21.59737,0 -7.88337,65.61725 -16.7987,0 2.05662,-11.90085 -10.97002,0 -5.486,11.90085 -16.11329,0 z m 27.08332,-23.79973 7.54069,0 4.11669,-20.05883 c 0,-1.36185 0.34268,-2.72128 0.6854,-4.07926 0.34268,-1.70122 1.02658,-4.0807 1.71198,-7.1399 -1.02613,1.69735 -1.71198,3.73892 -2.39738,5.43868 -1.02808,2.03915 -1.71589,4.07877 -2.74397,6.12036 l -8.91341,19.71898 z m 25.02478,23.79973 15.77208,0 6.51456,-21.41878 c 1.37077,-3.74086 2.39934,-7.82156 3.42738,-11.90275 1.36885,-4.41862 2.39934,-9.17761 3.42937,-13.93853 -0.34463,3.40146 -0.68732,6.80053 -1.03003,9.85972 0,3.06113 0,6.12035 0,9.18148 l 0.34271,28.21876 17.14139,0 20.57075,-65.61719 -15.42745,0 -7.54456,24.13761 c -1.36884,4.42104 -2.39934,8.15802 -3.42741,11.55948 -0.6854,3.40101 -1.37126,6.4602 -2.05666,9.86118 0.34467,-3.40098 0.6854,-6.80005 0.6854,-9.86118 0,-3.06113 0.34317,-6.11886 0,-9.18196 l 0.34317,-26.51516 -17.82726,0 -20.91344,65.61722 z m 86.39416,0 16.45018,-53.04065 -10.28075,0 4.11426,-12.57667 36.68214,0 -4.11424,12.57667 -10.28563,0 -16.79821,53.04065 -15.76772,0 z m 69.594,-65.61725 -16.11575,0 -14.39988,46.23786 c -2.39835,6.7986 -2.05711,11.89939 0.34611,15.29839 2.39836,3.401 6.85382,5.1008 13.71253,5.1008 7.19507,0 12.68399,-1.6998 17.48556,-5.1008 4.45547,-3.399 7.88727,-8.49979 9.93953,-15.29839 l 14.39986,-46.23786 -15.76965,0 -15.42845,48.61566 c -0.68732,2.0435 -1.71589,3.74134 -2.74445,4.76092 -1.02854,1.01957 -2.39836,1.35943 -4.10937,1.35943 -1.71589,0 -2.74934,-0.33986 -3.09056,-1.35943 -0.34123,-1.01957 -0.34123,-2.71741 0.34122,-4.76092 l 15.4333,-48.61566 z m 42.50753,26.51516 c 3.77303,-0.33986 6.17135,-0.67778 7.88239,-1.69736 1.37468,-0.68019 2.40322,-2.03963 3.09057,-4.08119 l 1.36978,-3.73699 c 0.68732,-2.3814 0.34122,-3.74134 -0.34122,-4.76282 -1.02856,-0.67971 -3.0857,-1.01957 -6.51749,-1.01957 l -0.68247,0 -4.80156,15.29792 z m -28.11241,39.10209 20.91249,-65.61725 22.62834,0 c 5.82528,0 9.93953,1.01957 12.33789,3.39906 2.06199,2.37754 2.74442,5.77853 1.03342,10.53945 l 0,0.67972 -1.37467,3.73892 c -1.02857,3.40146 -2.39836,6.12083 -4.45547,8.15803 -2.05713,1.7017 -4.79671,3.40294 -8.22849,4.42297 2.74446,1.01957 4.80157,2.37755 5.48404,4.41862 0.68732,1.70171 0.34122,4.4191 -0.68247,8.15996 l -4.80157,14.96052 c -0.34125,1.6993 -0.68736,3.399 -1.02857,4.4186 0,1.02 0,1.7017 0.34121,2.7213 l -16.11088,0 c 0,-0.6797 0,-1.7013 0,-2.7213 0.34125,-1.3594 0.68735,-2.7194 1.36979,-4.7585 l 3.77303,-12.91893 c 1.36978,-3.40097 1.36978,-5.78239 0.68735,-6.80052 -1.02857,-1.01957 -3.43181,-1.70123 -6.85871,-1.70123 l -9.25218,28.90048 -15.77455,0 z m 51.08195,0 16.11574,0 20.56638,-65.61725 -15.76967,0 -20.91245,65.61725 z m 31.19812,-22.78015 15.76963,0 -1.71589,5.43868 c -0.68247,2.04157 -1.02368,3.74086 -0.34122,4.76092 0.34122,1.01956 1.71101,1.69928 3.4269,1.69928 1.37468,0 3.0857,-0.33986 4.11424,-1.35942 1.36982,-1.01957 2.39836,-2.37756 2.74447,-4.08119 0.34125,-1.35943 0.34125,-2.71934 0,-4.07683 -0.34611,-1.35992 -1.37465,-2.72321 -2.74447,-4.08119 -0.68243,-0.67972 -1.711,-1.36137 -2.73956,-2.37901 -4.11426,-3.74134 -6.85872,-6.80052 -8.23336,-8.49981 -1.36981,-1.69976 -2.05225,-3.74324 -2.05225,-6.12082 -0.3461,-2.379 0,-4.76044 0.68244,-7.81963 1.71591,-5.44062 5.14281,-9.51987 9.60317,-12.57906 4.79671,-3.05919 10.28074,-4.76235 16.79823,-4.76235 6.51258,0 10.96807,1.3633 13.36643,4.4225 2.40321,2.71741 2.74446,6.80005 1.03342,12.23873 l -1.71589,5.43868 -15.08231,0 1.36978,-4.41671 c 0.68247,-2.04156 0.68247,-3.74325 0.34122,-4.76283 -0.68246,-1.01957 -1.711,-1.3575 -3.4269,-1.3575 -1.37467,0 -2.74446,0.33793 -3.77303,1.3575 -1.02856,0.67971 -2.05713,2.04156 -2.39835,3.40098 -0.68732,2.38142 1.36979,6.46068 6.85382,11.89936 l 0.3461,0.33986 0.68736,0.67972 c 4.79667,4.75895 7.54114,8.15996 7.88239,10.20105 0.34121,1.69784 0.68732,3.05968 0.34121,4.75895 0,1.70172 -0.34121,3.39908 -1.02368,5.43868 -1.72078,5.44062 -4.80157,9.86171 -9.60317,12.92081 -4.80156,3.401 -10.62685,4.7605 -17.48067,4.7605 -6.85871,0 -11.31418,-1.3594 -13.71742,-4.7605 -2.73957,-3.0591 -3.08568,-7.82007 -1.02854,-13.94038 l 1.7159,-4.75899 z m 40.79624,22.78015 15.42843,0 7.54117,-24.47991 c 2.05711,-5.78047 3.42689,-11.21915 5.14278,-16.31944 1.36979,-5.10073 3.08083,-10.1996 4.4555,-15.30033 -0.68735,3.39906 -1.37467,7.14232 -2.05714,10.87929 -0.34122,3.40098 -1.02857,7.82012 -1.711,12.23922 l -4.11913,32.98117 9.94438,0 16.79823,-34.33918 c 0.68732,-1.01957 1.7159,-3.40097 3.76815,-7.48023 1.71589,-3.74086 4.11425,-8.49981 6.85871,-14.2803 -2.05714,5.78046 -3.76814,11.21914 -5.48407,16.65782 -1.71589,5.10271 -3.42689,10.20151 -5.14279,15.30228 l -7.54117,24.13951 15.42357,0 20.57124,-65.61719 -24.33938,0 -10.28564,21.41827 c -1.02857,1.35992 -1.71101,3.7394 -3.08567,6.7986 -1.36979,2.72127 -2.73958,6.12034 -4.11426,10.20105 1.02858,-3.40098 1.7159,-6.4602 2.40322,-9.51939 0.34125,-2.72321 1.02857,-5.44062 1.36493,-8.1619 l 3.43178,-20.73663 -24.68549,0 -20.56635,65.61719 z m 100.10211,-48.61752 -10.28075,31.61593 c -0.68735,2.0435 -0.68735,3.74134 0,4.76092 0.34122,1.01957 1.36979,1.35943 3.0808,1.35943 1.72078,0 3.09056,-0.33986 4.11913,-1.35943 1.02368,-1.01957 2.05225,-2.71741 2.73957,-4.76092 l 9.93954,-31.61593 c 0.68732,-2.38141 0.68732,-3.74134 0.3461,-4.76283 -0.3461,-1.01957 -1.71104,-1.35942 -3.42693,-1.35942 -1.71588,0 -3.09056,0.33985 -4.11424,1.35942 -1.02857,1.02152 -1.7159,2.38143 -2.40322,4.76283 z m -17.13945,2.37756 c 2.40321,-6.80054 5.48404,-11.89937 10.2856,-15.30035 4.45549,-3.39713 10.28075,-5.10028 17.13946,-5.10028 7.19992,0 12.00152,1.70315 14.39988,5.10028 2.39836,3.40101 2.39836,8.49981 0.34121,15.30035 l -8.56971,26.86082 c -2.05714,6.79859 -5.48403,11.89934 -9.93953,15.29844 -4.45546,3.4009 -10.2856,5.1007 -17.48556,5.1007 -6.85868,0 -11.65539,-1.6997 -14.05863,-5.1007 -2.39348,-3.3991 -2.73958,-8.49985 -0.34122,-15.29844 l 8.2285,-26.86082"
       inkscape:connector-curvature="0" />
    <path
       style="fill:#0a267c;fill-opacity:1;stroke:none"
       d="m 56.168126,858.5344 c -2.85377,0.0879 -4.98438,1.26698 -5.71875,3.375 l -17.5,49.46875 c -0.27349,0.88044 -1.17905,5.1525 2.15625,5.1875 l 106.624994,0 c 2.85377,-0.0879 4.95313,-1.29823 5.6875,-3.40625 l 17.5,-49.4375 c 0.27349,-0.88044 1.2103,-5.1525 -2.125,-5.1875 z"
       id="path3014-9"
       inkscape:connector-curvature="0"
       sodipodi:nodetypes="ccccccccc" />
    <path
       style="fill:#820009;fill-opacity:1;stroke:none"
       d="m 196.55772,858.5344 c -2.85377,0.0879 -4.98438,1.26698 -5.71875,3.375 l -17.5,49.46875 c -0.27349,0.88044 -1.17905,5.1525 2.15625,5.1875 l 106.62499,0 c 2.85377,-0.0879 4.95313,-1.29823 5.6875,-3.40625 l 17.5,-49.4375 c 0.27349,-0.88044 1.2103,-5.1525 -2.125,-5.1875 z"
       id="path3014-6"
       inkscape:connector-curvature="0"
       sodipodi:nodetypes="ccccccccc" />
  </g>
</svg>
